<?xml version="1.0" encoding="UTF-8"?>
<svg version="1.1" xmlns="http://www.w3.org/2000/svg" width="32" height="32">
<path d="M0 0 C3.30901116 1.0269345 4.0219638 2.03922107 5.75 5.125 C7.87872921 10.67820665 7.43079878 16.27680487 6 22 C5.34 22 4.68 22 4 22 C4 22.99 4 23.98 4 25 C2.68 25.33 1.36 25.66 0 26 C-0.33 24.68 -0.66 23.36 -1 22 C-1.99 22 -2.98 22 -4 22 C-5.88160372 14.47358511 -5.52954198 8.78758073 -2 2 C-1.34 1.34 -0.68 0.68 0 0 Z M-1 10 C-1 10.66 -1 11.32 -1 12 C0.32 11.67 1.64 11.34 3 11 C1.68 10.67 0.36 10.34 -1 10 Z " fill="#A73382" transform="translate(15,3)"/>
<path d="M0 0 C0.33 0 0.66 0 1 0 C1 4.95 1 9.9 1 15 C3.64 15 6.28 15 9 15 C9.33 11.37 9.66 7.74 10 4 C10.33 4 10.66 4 11 4 C11.07654536 8.51617599 11.10228696 12.59085217 10 17 C9.34 17 8.68 17 8 17 C8 17.99 8 18.98 8 20 C6.68 20.33 5.36 20.66 4 21 C3.67 19.68 3.34 18.36 3 17 C2.01 17 1.02 17 0 17 C-1.37745568 11.49017726 -1.8198497 5.45954909 0 0 Z " fill="#51183F" transform="translate(11,8)"/>
<path d="M0 0 C1.32 0.66 2.64 1.32 4 2 C4 2.99 4 3.98 4 5 C3.34 5 2.68 5 2 5 C2 7.15634036 2.4465236 8.92446352 3 11 C1.68 10.67 0.36 10.34 -1 10 C-1.33 10.66 -1.66 11.32 -2 12 C-3.52491998 8.95016004 -3.23562548 6.3576631 -3 3 C-1.5 1.0625 -1.5 1.0625 0 0 Z " fill="#AC3187" transform="translate(15,3)"/>
<path d="M0 0 C0.99 0.66 1.98 1.32 3 2 C3.40843923 4.71203652 3.13336867 7.2437142 3 10 C0.36 10 -2.28 10 -5 10 C-4.67 9.01 -4.34 8.02 -4 7 C-4 7.66 -4 8.32 -4 9 C-2.35 9 -0.7 9 1 9 C0.649375 7.88625 0.29875 6.7725 -0.0625 5.625 C-1 2 -1 2 0 0 Z " fill="#E948B3" transform="translate(17,6)"/>
<path d="M0 0 C2.31 0 4.62 0 7 0 C7 1.32 7 2.64 7 4 C4.69 4 2.38 4 0 4 C0 2.68 0 1.36 0 0 Z " fill="#E947B5" transform="translate(12,19)"/>
<path d="M0 0 C1.32 0.66 2.64 1.32 4 2 C4 2.99 4 3.98 4 5 C3.21625 4.814375 2.4325 4.62875 1.625 4.4375 C-0.97089775 3.74037734 -0.97089775 3.74037734 -3 5 C-1.125 1.125 -1.125 1.125 0 0 Z " fill="#6F2256" transform="translate(15,3)"/>
</svg>
