<?xml version="1.0" encoding="UTF-8"?>
<svg version="1.1" xmlns="http://www.w3.org/2000/svg" width="32" height="32">
<path d="M0 0 C3.30901116 1.0269345 4.0219638 2.03922107 5.75 5.125 C7.87872921 10.67820665 7.43079878 16.27680487 6 22 C5.34 22 4.68 22 4 22 C4 22.99 4 23.98 4 25 C2.68 25.33 1.36 25.66 0 26 C-0.33 24.68 -0.66 23.36 -1 22 C-1.99 22 -2.98 22 -4 22 C-5.88160372 14.47358511 -5.52954198 8.78758073 -2 2 C-1.34 1.34 -0.68 0.68 0 0 Z M-1 10 C-1 10.66 -1 11.32 -1 12 C0.32 11.67 1.64 11.34 3 11 C1.68 10.67 0.36 10.34 -1 10 Z " fill="#4F0123" transform="translate(15,3)"/>
<path d="M0 0 C1.32 0.66 2.64 1.32 4 2 C4.10251672 7.12583611 4.03590199 11.94997778 3 17 C0.36 17 -2.28 17 -5 17 C-5 13.04 -5 9.08 -5 5 C-4.01 5 -3.02 5 -2 5 C-2.33 6.32 -2.66 7.64 -3 9 C-1.68 9 -0.36 9 1 9 C0.649375 7.88625 0.29875 6.7725 -0.0625 5.625 C-1 2 -1 2 0 0 Z " fill="#A20348" transform="translate(17,6)"/>
<path d="M0 0 C1.32 0.66 2.64 1.32 4 2 C4 2.99 4 3.98 4 5 C3.34 5 2.68 5 2 5 C2 7.15634036 2.4465236 8.92446352 3 11 C1 10 -1 9 -3 8 C-3.36923077 3.44615385 -3.36923077 3.44615385 -1.5 1.1875 C-1.005 0.795625 -0.51 0.40375 0 0 Z " fill="#6D0230" transform="translate(15,3)"/>
<path d="M0 0 C0.99 0.66 1.98 1.32 3 2 C3.40843923 4.71203652 3.13336867 7.2437142 3 10 C0.36 10 -2.28 10 -5 10 C-5 8.35 -5 6.7 -5 5 C-4.01 5 -3.02 5 -2 5 C-2.33 6.32 -2.66 7.64 -3 9 C-1.68 9 -0.36 9 1 9 C0.649375 7.88625 0.29875 6.7725 -0.0625 5.625 C-1 2 -1 2 0 0 Z " fill="#E30464" transform="translate(17,6)"/>
<path d="M0 0 C2.31 0 4.62 0 7 0 C7 1.32 7 2.64 7 4 C4.69 4 2.38 4 0 4 C0 2.68 0 1.36 0 0 Z " fill="#E30464" transform="translate(12,19)"/>
<path d="M0 0 C2.15377564 2.62198774 3.40072174 4.64404172 4 8 C2 7 -0 6 -2 5 C-1.125 1.125 -1.125 1.125 0 0 Z " fill="#90023A" transform="translate(14,6)"/>
</svg>
