<?xml version="1.0" encoding="UTF-8"?>
<svg version="1.1" xmlns="http://www.w3.org/2000/svg" width="32" height="32">
<path d="M0 0 C3.30901116 1.0269345 4.0219638 2.03922107 5.75 5.125 C7.87872921 10.67820665 7.43079878 16.27680487 6 22 C5.34 22 4.68 22 4 22 C4 22.99 4 23.98 4 25 C2.68 25.33 1.36 25.66 0 26 C-0.33 24.68 -0.66 23.36 -1 22 C-1.99 22 -2.98 22 -4 22 C-5.88160372 14.47358511 -5.52954198 8.78758073 -2 2 C-1.34 1.34 -0.68 0.68 0 0 Z M-1 3 C-1.33 4.32 -1.66 5.64 -2 7 C-0.02 7 1.96 7 4 7 C3.34 5.68 2.68 4.36 2 3 C2 3.66 2 4.32 2 5 C1.34 5 0.68 5 0 5 C-0.33 4.34 -0.66 3.68 -1 3 Z M-1 10 C-1.33 10.99 -1.66 11.98 -2 13 C-0.02 13 1.96 13 4 13 C3.34 12.01 2.68 11.02 2 10 C1.01 10 0.02 10 -1 10 Z M-2 14 C-2 14.33 -2 14.66 -2 15 C-0.02 15 1.96 15 4 15 C4 14.67 4 14.34 4 14 C2.02 14 0.04 14 -2 14 Z M-2 16 C-2 17.32 -2 18.64 -2 20 C-0.02 20 1.96 20 4 20 C4 18.68 4 17.36 4 16 C2.02 16 0.04 16 -2 16 Z " fill="#000000" transform="translate(15,3)"/>
</svg>
